<svg aria-hidden="true" style="width:0;height:0;position:absolute;overflow:hidden" xmlns="http://www.w3.org/2000/svg"><defs><symbol id="icon-message-circle" viewBox="0 0 24 24"><path d="M22 11.497V11l-.002-.058a9.515 9.515 0 0 0-2.642-6.051A9.43 9.43 0 0 0 13 2h-.489a9.266 9.266 0 0 0-4.264 1.008 9.676 9.676 0 0 0-3.139 2.535A9.432 9.432 0 0 0 3 11.489a9.229 9.229 0 0 0 .824 3.877l-1.772 5.317a1 1 0 0 0 1.265 1.264l5.314-1.771a9.338 9.338 0 0 0 3.876.823 9.672 9.672 0 0 0 3.941-.866 9.431 9.431 0 0 0 4.541-4.375A9.27 9.27 0 0 0 22 11.497zm-2 .006a7.274 7.274 0 0 1-.789 3.339 7.443 7.443 0 0 1-3.592 3.472 7.657 7.657 0 0 1-3.126.686 7.27 7.27 0 0 1-3.335-.789.997.997 0 0 0-.775-.06L4.58 19.419l1.268-3.803a.996.996 0 0 0-.056-.767A7.275 7.275 0 0 1 5 11.511a7.442 7.442 0 0 1 1.663-4.709 7.661 7.661 0 0 1 2.49-2.01A7.262 7.262 0 0 1 12.489 4h.456a7.426 7.426 0 0 1 4.969 2.277A7.52 7.52 0 0 1 20 11.03z"/></symbol><symbol id="icon-person" viewBox="0 0 24 24"><path d="M12 14.016q2.531 0 5.273 1.102t2.742 2.883v2.016H3.984v-2.016q0-1.781 2.742-2.883t5.273-1.102zM12 12q-1.641 0-2.813-1.172T8.015 8.015t1.172-2.836T12 3.984t2.813 1.195 1.172 2.836-1.172 2.813T12 12z"/></symbol><symbol id="icon-heart" viewBox="0 0 24 24"><path d="M20.133 5.317c.88.881 1.319 2.031 1.319 3.184s-.44 2.303-1.319 3.182L12 19.816l-8.133-8.133c-.879-.879-1.318-2.029-1.318-3.183s.439-2.304 1.318-3.183S5.896 3.999 7.05 3.999s2.304.439 3.183 1.318l1.06 1.06a.999.999 0 0 0 1.414 0l1.062-1.062c.879-.879 2.029-1.318 3.182-1.317s2.303.44 3.182 1.319zm1.414-1.414c-1.269-1.269-2.934-1.904-4.596-1.905s-3.327.634-4.597 1.903L12 4.256l-.353-.353C10.378 2.634 8.712 1.999 7.05 1.999s-3.328.635-4.597 1.904S.549 6.838.549 8.5s.635 3.328 1.904 4.597l8.84 8.84a.999.999 0 0 0 1.414 0l8.84-8.84c1.269-1.269 1.904-2.934 1.905-4.596s-.634-3.327-1.905-4.598z"/></symbol><symbol id="icon-heart1" viewBox="0 0 24 24"><path d="M12 10.375a4.375 4.375 0 0 0-8.75 0c0 1.127.159 2.784 1.75 4.375S12 20 12 20s5.409-3.659 7-5.25 1.75-3.248 1.75-4.375a4.375 4.375 0 0 0-8.75 0"/></symbol><symbol id="icon-user-solid-square" viewBox="0 0 20 20"><path d="M0 2C0 .9.9 0 2 0h16a2 2 0 0 1 2 2v16a2 2 0 0 1-2 2H2a2 2 0 0 1-2-2V2zm7 4v2a3 3 0 1 0 6 0V6a3 3 0 1 0-6 0zm11 9.14C15.713 13.795 12.962 13 10.025 13h-.026H10c-2.91 0-5.65.78-8 2.14V18h16v-2.86z"/></symbol></defs></svg>